<?xml version="1.0" encoding="utf-8"?>
<!-- Generator: Adobe Illustrator 26.4.0, SVG Export Plug-In . SVG Version: 6.00 Build 0)  -->
<svg version="1.1" id="Laag_1" xmlns="http://www.w3.org/2000/svg" xmlns:xlink="http://www.w3.org/1999/xlink" x="0px" y="0px"
	 viewBox="0 0 1906.7 176.4" style="enable-background:new 0 0 1906.7 176.4;" xml:space="preserve">
<g>
	<g>
		<polygon points="838.3,132.8 874.9,31.1 869.7,31.1 833.1,132.8 		"/>
	</g>
	<g>
		<path d="M995,56.9h-9.5l0.6-2.6h24.3l-0.6,2.6h-9.5l-13,59.7H982L995,56.9z"/>
		<path d="M1040.2,98.3H1027l-6.9,18.2h-4.8l24.4-62.2h7.5l-2.5,62.2h-5.4L1040.2,98.3z M1040.4,95.7l1.1-20.4
			c0.3-6.2,0.3-12.5,1.4-18.8h-0.3c-2.4,6.2-4.2,12.6-6.6,18.8l-7.9,20.4H1040.4z"/>
		<path d="M1083.4,54.3h5.4l-13.6,62.2h-5.4L1083.4,54.3z M1082.4,83.6l19.6-29.3h4.8l-19.6,29.3l7.4,32.9h-5.4L1082.4,83.6z"/>
		<path d="M1132.5,54.3h18.3l-0.6,2.6h-13l-5.8,26.4h12.2l-0.6,2.6H1131l-6.1,28.1h13.9l-0.6,2.6h-19.3L1132.5,54.3z"/>
		<path d="M1212.5,60.7c0.9-4.3,5.7-6.7,12.8-6.7c7.1,0,10.3,2.4,9.4,6.7l-2.2,10.3h-5.4l2.1-9.7c0.5-2.5-0.2-4.7-4.5-4.7
			c-3.7,0-6.3,1.5-6.9,3.9l-10.9,50c-0.5,2.4,1.4,3.9,5.2,3.9c4.3,0,5.8-1.5,6.5-4.7L1221,99h5.4l-2.4,11.1
			c-0.9,4.3-5.2,6.7-12.3,6.7c-7.1,0-10.8-2.4-9.9-6.7L1212.5,60.7z"/>
		<path d="M1264.9,54.3h12c6.4,0,10.6,1.9,9.7,5.8l-4,18.4c-0.7,3.4-2.7,5.8-9.6,6.1l0,0.2c4.8,0.3,7.9,1.8,7.1,5.6l-5.7,26.2h-5.3
			l5.7-26.2c0.5-2.3-1-4.5-6.4-4.5h-4.9l-6.7,30.7h-5.4L1264.9,54.3z M1269.1,83.2c4.5,0,7.4-1.4,8-4.1l4-18.4
			c0.6-2.7-1.4-3.9-5.7-3.9h-5.8l-5.8,26.4H1269.1z"/>
		<path d="M1318.9,54.3h18.3l-0.6,2.6h-13l-5.8,26.4h12.2l-0.6,2.6h-12.2l-6.1,28.1h13.9l-0.6,2.6h-19.3L1318.9,54.3z"/>
		<path d="M1371.4,98.3h-13.2l-6.9,18.2h-4.8l24.4-62.2h7.5l-2.5,62.2h-5.4L1371.4,98.3z M1371.5,95.7l1.1-20.4
			c0.3-6.2,0.3-12.5,1.4-18.8h-0.3c-2.4,6.2-4.2,12.6-6.6,18.8l-7.9,20.4H1371.5z"/>
		<path d="M1416.8,56.9h-9.5l0.6-2.6h24.3l-0.6,2.6h-9.5l-13,59.7h-5.3L1416.8,56.9z"/>
		<path d="M1457.9,54.3h5.3l-13.6,62.2h-5.3L1457.9,54.3z"/>
		<path d="M1489.5,54.3h5.4l-2.5,41c-0.5,6.4-1.2,12.4-1.8,18.6h0.3c2.4-6.2,4-12.4,6.3-18.6l15.2-41h5.2l-24,62.2h-7.2L1489.5,54.3
			z"/>
		<path d="M1543.4,54.3h18.3l-0.6,2.6h-13l-5.8,26.4h12.2l-0.6,2.6h-12.2l-6.1,28.1h13.9l-0.6,2.6h-19.3L1543.4,54.3z"/>
		<path d="M1630.2,98.3h-13.2l-6.9,18.2h-4.8l24.4-62.2h7.5l-2.5,62.2h-5.4L1630.2,98.3z M1630.3,95.7l1.1-20.4
			c0.3-6.2,0.3-12.5,1.4-18.8h-0.3c-2.4,6.2-4.2,12.6-6.6,18.8l-7.9,20.4H1630.3z"/>
		<path d="M1670.1,60.7c0.9-4.3,5.7-6.7,12.8-6.7c7.1,0,10.3,2.4,9.4,6.7l-2.2,10.3h-5.4l2.1-9.7c0.5-2.5-0.2-4.7-4.5-4.7
			c-3.7,0-6.3,1.5-6.9,3.9l-10.9,50c-0.5,2.4,1.4,3.9,5.2,3.9c4.3,0,5.8-1.5,6.5-4.7l2.3-10.6h5.4l-2.4,11.1
			c-0.9,4.3-5.2,6.7-12.3,6.7c-7.1,0-10.8-2.4-9.9-6.7L1670.1,60.7z"/>
		<path d="M1726,56.9h-9.5l0.6-2.6h24.3l-0.6,2.6h-9.5l-13,59.7h-5.4L1726,56.9z"/>
		<path d="M1767.1,54.3h5.3l-13.6,62.2h-5.3L1767.1,54.3z"/>
		<path d="M1814.7,110.1c-0.9,4.3-5.6,6.7-13.1,6.7c-7.5,0-11.2-2.4-10.3-6.7l10.8-49.5c0.9-4.3,5.7-6.7,13.2-6.7
			c7.5,0,11.1,2.4,10.2,6.7L1814.7,110.1z M1820.1,60.7c0.6-2.8-1.5-4.2-5.4-4.2c-3.9,0-6.7,1.5-7.3,4.2l-10.8,49.3
			c-0.6,2.8,1.6,4.2,5.5,4.2c3.9,0,6.6-1.5,7.2-4.2L1820.1,60.7z"/>
		<path d="M1857.5,54.3h8l0.3,40.2c0,4.9,0.1,12,0.2,19.5h0.3c1.2-8.6,2.3-16.6,3-20l8.6-39.7h5.3l-13.6,62.2h-8l-0.7-39.7
			c-0.1-3.4,0.3-11.8,0.6-20h-0.3c-1.5,8.1-2.6,16-3,18.1l-9.1,41.6h-5.4L1857.5,54.3z"/>
		<path d="M1898.8,112h5.9l-1,4.5h-5.9L1898.8,112z"/>
	</g>
	<g>
		<path d="M705.9,67.8c-92.7,5-185.3,11.7-277.8,20.1c-71.8,6.5-143.4,14.1-215,22.6c8.5-22.9,17.1-45.9,25.6-68.8
			c2.9-7.9,5.9-15.9,8.8-23.8c0.9,0.1,1.8-0.4,2.1-1.5c1-4.1,2.1-8.3,3.1-12.4c0.7-2.7-3.2-3.7-4.1-1.1
			c-10.9,29.3-21.8,58.6-32.7,87.9c-0.1,0-0.2,0-0.3,0c-9.1,2.1-18.4,3.8-27.6,5.3c3.5-1.9,7-3.8,10.4-5.8c1.9-1.1,1-3.9-1.1-4
			c-1.6-0.1-3.2-0.3-4.8-0.5c1-0.6,1.9-1.4,2.8-2.2c1.3-1.2,0.4-3.9-1.5-3.7c-5.9,0.7-11.9,1.5-17.8,2.2c-2.7,0.3-2.7,4.6,0,4.3
			c2.4-0.3,4.8-0.6,7.2-0.9c-0.4,1.1,0.1,2.7,1.4,3c2,0.5,4,0.9,6.1,1.3c-5.4,3-11,5.9-16.6,8.4c-1.9,0.9-1,4.3,1.1,4
			c13.1-1.6,26.1-3.8,39-6.7c-1.9,5.2-3.9,10.4-5.8,15.6c-18.6,2.2-37.2,4.5-55.7,6.9C101,124.6,49.6,131.7-1.9,139.3
			c-2.4,0.4-1.8,4.2,0.6,4.2c63.1,0.5,126.2-2.8,188.9-10.1c4.3-0.5,8.7-1,13-1.6c-0.5,1.3-1,2.6-1.5,4c-4.7,12.6-9.4,25.2-14,37.8
			c-0.6,1.7,1.7,3.4,3.2,2.4c20.5-13.7,38.4-30.7,53.1-50.5c1.3-1.7-0.8-3.4-2.4-3.2c-10.6,1.6-21.3,3.1-31.9,4.4
			c1.5-3.9,2.9-7.9,4.4-11.8c21.1-2.5,42.3-5,63.5-7.3c91.8-10.2,183.8-18.8,275.9-25.6c51.6-3.8,103.3-7.1,155-9.9
			C708.7,72,708.7,67.7,705.9,67.8z M234.6,127.3c-12.3,15.7-26.8,29.6-43.1,41.2c4.6-12.4,9.2-24.8,13.8-37.2
			C215.1,130.1,224.9,128.8,234.6,127.3z M202.3,127.4c-49.9,6.2-100.2,10-150.5,11.4c-7.8,0.2-15.6,0.3-23.3,0.4
			c59.3-8.6,118.7-16.5,178.2-23.6C205.2,119.5,203.7,123.5,202.3,127.4z"/>
		<path d="M234.1,86.5c9.4-0.6,18.6-2.8,27.1-6.6c-2.4,3.8-4.9,7.6-7.3,11.3c-1.5,2.3,2.2,4.5,3.7,2.2c3.9-6,7.7-11.9,11.6-17.9
			c1.2-1.9-1.1-4-2.9-2.9c-7.6,4.4-15.9,7.3-24.6,8.8c4.2-2.6,8.8-4.4,13.6-5.3c2.7-0.5,1.6-4.7-1.1-4.1c-8.1,1.6-15.5,5.4-21.5,11
			C231.3,84.1,232.3,86.6,234.1,86.5z"/>
	</g>
</g>
</svg>
